<svg width="115.9" height="72.001" viewBox="0 0 115.9 72.001" xmlns="http://www.w3.org/2000/svg"><g id="svgGroup" stroke-linecap="round" fill-rule="evenodd" font-size="9pt" stroke="#000" stroke-width="0.25mm" fill="black" style="stroke:#000;stroke-width:0.25mm;fill:black"><path d="M 49.7 67.801 L 40.8 72.001 L 32.1 53.001 A 30.586 30.586 0 0 0 29.509 48.427 Q 27.003 44.823 23.8 42.901 Q 19.445 40.287 12.964 39.95 A 37.847 37.847 0 0 0 11 39.901 L 9.5 39.901 L 9.5 70.801 L 0 70.801 L 0 1.001 Q 5.3 0.501 10.15 0.251 A 187.94 187.94 0 0 1 16.466 0.036 A 226.267 226.267 0 0 1 20.5 0.001 Q 33.3 0.001 39.75 5.201 A 17.414 17.414 0 0 1 44.38 10.735 Q 46.2 14.244 46.2 18.601 A 19.88 19.88 0 0 1 45.549 23.821 A 14.672 14.672 0 0 1 41.85 30.351 Q 37.5 34.801 29.3 37.001 A 23.656 23.656 0 0 1 32.729 38.863 A 20.427 20.427 0 0 1 34.1 39.851 Q 36.069 41.397 37.905 43.911 A 29.29 29.29 0 0 1 38.15 44.251 Q 40.1 47.001 42.1 51.401 L 49.7 67.801 Z M 61.7 70.601 L 61.7 1.001 Q 66.4 0.501 70.9 0.251 A 151.31 151.31 0 0 1 75.086 0.08 Q 77.938 0.001 81.2 0.001 A 48.608 48.608 0 0 1 88.544 0.527 Q 92.478 1.129 95.81 2.418 A 29.198 29.198 0 0 1 96.75 2.801 A 30.978 30.978 0 0 1 104.039 7.121 A 27.223 27.223 0 0 1 107.55 10.501 Q 111.8 15.401 113.85 21.851 A 44.256 44.256 0 0 1 115.822 32.846 A 51.506 51.506 0 0 1 115.9 35.701 A 45.309 45.309 0 0 1 114.419 47.398 A 41.802 41.802 0 0 1 113.8 49.501 Q 111.7 56.001 107.35 60.951 Q 103 65.901 96.25 68.751 Q 89.975 71.4 81.409 71.587 A 60.192 60.192 0 0 1 80.1 71.601 A 186.98 186.98 0 0 1 76.029 71.558 Q 74.015 71.515 72.222 71.425 A 101.5 101.5 0 0 1 70.15 71.301 Q 65.9 71.001 61.7 70.601 Z M 71.2 8.701 L 71.2 62.801 Q 73.3 63.101 75.6 63.201 A 107.265 107.265 0 0 0 79.163 63.294 A 121.297 121.297 0 0 0 80.4 63.301 A 37.906 37.906 0 0 0 86.564 62.829 Q 91.493 62.015 95.1 59.801 Q 100.8 56.301 103.5 50.051 A 32.292 32.292 0 0 0 105.754 41.977 A 42.502 42.502 0 0 0 106.2 35.701 Q 106.2 28.501 103.5 22.201 Q 100.8 15.901 95.2 12.051 A 20.895 20.895 0 0 0 88.148 8.991 Q 85.307 8.312 81.996 8.216 A 38.008 38.008 0 0 0 80.9 8.201 Q 78 8.201 75.6 8.351 Q 73.2 8.501 71.2 8.701 Z M 9.5 8.401 L 9.5 31.901 L 20.5 31.901 A 26.489 26.489 0 0 0 25.423 31.469 Q 29.352 30.726 32.2 28.701 Q 36.7 25.501 36.7 19.501 A 9.811 9.811 0 0 0 33.427 12.036 A 13.272 13.272 0 0 0 32.5 11.251 A 13.923 13.923 0 0 0 28.136 9.029 Q 26.207 8.418 23.877 8.17 A 31.944 31.944 0 0 0 20.5 8.001 Q 17.326 8.001 14.762 8.088 A 118.974 118.974 0 0 0 14.4 8.101 Q 11.7 8.201 9.5 8.401 Z" vector-effect="non-scaling-stroke"/></g></svg>